<svg id="component_2_1" data-name="Component 2 - 1" width="300" height="300" viewBox="0 0 800 800" xmlns="http://www.w3.org/2000/svg">
<path d="M312.5 312.5C309.185 312.5 306.005 311.183 303.661 308.839C301.317 306.495 300 303.315 300 300V243.085C299.976 221.72 291.477 201.237 276.37 186.13C261.263 171.023 240.78 162.524 219.415 162.5H162.5C159.185 162.5 156.005 161.183 153.661 158.839C151.317 156.495 150 153.315 150 150C150 146.685 151.317 143.505 153.661 141.161C156.005 138.817 159.185 137.5 162.5 137.5H219.415C247.408 137.531 274.246 148.665 294.041 168.459C313.835 188.254 324.969 215.092 325 243.085V300C325 303.315 323.683 306.495 321.339 308.839C318.995 311.183 315.815 312.5 312.5 312.5Z" fill="#6D4D42"/>
<path d="M650 450C646.685 450 643.505 448.683 641.161 446.339C638.817 443.995 637.5 440.815 637.5 437.5V331.375C637.487 319.838 632.898 308.777 624.739 300.62C616.581 292.462 605.52 287.874 593.983 287.862H562.5C559.185 287.862 556.005 286.546 553.661 284.201C551.317 281.857 550 278.678 550 275.362C550 272.047 551.317 268.868 553.661 266.524C556.005 264.179 559.185 262.862 562.5 262.862H593.983C612.147 262.883 629.562 270.108 642.407 282.952C655.252 295.796 662.478 313.21 662.5 331.375V437.5C662.5 440.815 661.183 443.995 658.839 446.339C656.495 448.683 653.315 450 650 450Z" fill="#6D4D42"/>
<path d="M750 543.75C749.981 571.923 738.781 598.938 718.859 618.859C698.938 638.781 671.923 649.981 643.75 650C641.625 650 639.625 650 637.5 649.875C610.445 648.266 585.025 636.384 566.438 616.659C547.85 596.933 537.499 570.853 537.499 543.75C537.499 516.647 547.85 490.567 566.438 470.841C585.025 451.116 610.445 439.234 637.5 437.625C639.625 437.5 641.625 437.5 643.75 437.5C671.923 437.519 698.938 448.719 718.859 468.641C738.781 488.562 749.981 515.577 750 543.75Z" fill="#AB6CAD"/>
<path d="M750 543.75C749.981 571.923 738.781 598.938 718.859 618.859C698.938 638.781 671.923 649.981 643.75 650C641.625 650 639.625 650 637.5 649.875V437.625C639.625 437.5 641.625 437.5 643.75 437.5C671.923 437.519 698.938 448.719 718.859 468.641C738.781 488.562 749.981 515.577 750 543.75Z" fill="#9B51A0"/>
<path d="M312.25 313.625C285.03 338.134 267.694 371.738 263.5 408.125C248.251 418.041 230.663 423.774 212.5 424.75C210.424 424.958 208.336 425.042 206.25 425C178.071 425 151.046 413.806 131.12 393.88C111.194 373.954 100 346.929 100 318.75C100 290.571 111.194 263.546 131.12 243.62C151.046 223.694 178.071 212.5 206.25 212.5C208.336 212.458 210.424 212.542 212.5 212.75C238.649 214.278 263.308 225.428 281.725 244.053C300.143 262.678 311.016 287.461 312.25 313.625Z" fill="#863B96"/>
<path d="M312.25 313.625C285.03 338.134 267.694 371.738 263.5 408.125C248.251 418.041 230.663 423.774 212.5 424.75V212.75C238.649 214.278 263.308 225.428 281.725 244.053C300.143 262.678 311.016 287.461 312.25 313.625Z" fill="#783293"/>
<path d="M553.875 600.25C545.706 617.347 532.205 631.328 515.404 640.089C498.603 648.85 479.411 651.918 460.716 648.83C442.021 645.743 424.835 636.667 411.743 622.969C398.651 609.27 390.363 591.691 388.125 572.875C396.183 574.213 404.332 574.924 412.5 575C434.09 575.06 455.429 570.366 475 561.25C501.785 548.904 524.347 528.95 539.875 503.875C541.125 505.375 542.5 506.875 543.625 508.375C539.611 519.739 537.541 531.698 537.5 543.75C537.475 563.757 543.156 583.357 553.875 600.25Z" fill="#863B96"/>
<path d="M553.875 600.25C546.75 615.131 535.565 627.696 521.611 636.498C507.656 645.299 491.499 649.98 475 650V561.25C501.785 548.904 524.347 528.95 539.875 503.875C541.125 505.375 542.5 506.875 543.625 508.375C539.611 519.739 537.541 531.698 537.5 543.75C537.475 563.757 543.156 583.357 553.875 600.25Z" fill="#783293"/>
<path d="M562.5 425C562.517 461.923 548.909 497.554 524.283 525.065C499.657 552.576 465.746 570.033 429.046 574.09C392.347 578.147 355.441 568.519 325.401 547.051C295.36 525.583 274.298 493.785 266.25 457.75C271.291 473.649 281.267 487.529 294.731 497.374C308.195 507.219 324.446 512.517 341.125 512.5H362.5V491.125C362.513 480.796 360.488 470.566 356.541 461.021C352.594 451.476 346.803 442.804 339.5 435.5C332.196 428.197 323.524 422.406 313.979 418.459C304.434 414.512 294.204 412.487 283.875 412.5H263.25C265.115 389.957 272.055 368.128 283.549 348.646C295.043 329.164 310.795 312.534 329.625 300H349.125C371.715 300.043 393.796 293.292 412.5 280.625C414.977 279.017 417.356 277.264 419.625 275.375C443.152 276.45 466.092 283.067 486.576 294.688C507.06 306.31 524.508 322.606 537.5 342.25V356.25C537.488 367.066 539.651 377.774 543.86 387.738C548.069 397.702 554.238 406.718 562 414.25C562.25 417.875 562.5 421.375 562.5 425Z" fill="#692C90"/>
<path d="M562.5 425C562.505 444.7 558.629 464.208 551.093 482.409C543.557 500.61 532.508 517.148 518.578 531.078C504.648 545.008 488.11 556.057 469.909 563.593C451.708 571.129 432.2 575.005 412.5 575V280.625C414.977 279.017 417.356 277.264 419.625 275.375C443.152 276.45 466.092 283.067 486.576 294.688C507.06 306.31 524.508 322.606 537.5 342.25V356.25C537.488 367.066 539.651 377.774 543.86 387.738C548.069 397.702 554.238 406.718 562 414.25C562.25 417.875 562.5 421.375 562.5 425Z" fill="#4B2D87"/>
<path d="M321.25 543.875C315.978 566.447 305.082 587.319 289.576 604.548C274.07 621.778 254.458 634.806 232.565 642.419C210.672 650.033 187.208 651.985 164.357 648.094C141.507 644.203 120.012 634.596 101.872 620.165C83.7318 605.735 69.5366 586.951 60.6068 565.561C51.677 544.17 48.3027 520.869 50.798 497.824C53.2933 474.779 61.577 452.74 74.8784 433.757C88.1798 414.773 106.067 399.463 126.875 389.25C142.683 407.104 164.036 419.123 187.5 423.375C193.696 424.423 199.966 424.966 206.25 425C226.561 425.009 246.441 419.149 263.5 408.125C263.375 409.625 263.375 411 263.25 412.5H262.5V433.875C262.516 442.02 263.781 450.114 266.25 457.875C273.98 492.084 293.438 522.509 321.25 543.875Z" fill="#AB6CAD"/>
<path d="M321.25 543.875C314.175 574.047 297.116 600.946 272.839 620.208C248.562 639.471 218.491 649.969 187.5 650V423.375C193.696 424.423 199.966 424.966 206.25 425C226.561 425.009 246.441 419.149 263.5 408.125C263.375 409.625 263.375 411 263.25 412.5H262.5V433.875C262.516 442.02 263.781 450.114 266.25 457.875C273.98 492.084 293.438 522.509 321.25 543.875Z" fill="#9B51A0"/>
<path d="M462.5 150V186.625C462.502 201.514 459.57 216.258 453.873 230.014C448.176 243.77 439.825 256.269 429.297 266.797C418.769 277.325 406.27 285.676 392.514 291.373C378.758 297.07 364.014 300.002 349.125 300H312.5V263.375C312.498 248.486 315.43 233.742 321.127 219.986C326.824 206.23 335.175 193.731 345.703 183.203C356.231 172.675 368.73 164.324 382.486 158.627C396.242 152.93 410.986 149.998 425.875 150H462.5Z" fill="#378E43"/>
<path d="M462.5 150V186.625C462.502 201.514 459.57 216.258 453.873 230.014C448.176 243.77 439.825 256.269 429.297 266.797C418.769 277.325 406.27 285.676 392.514 291.373C378.758 297.07 364.014 300.002 349.125 300H312.5L462.5 150Z" fill="#42A047"/>
<path d="M500 450H487.5V437.5C487.5 434.185 486.183 431.005 483.839 428.661C481.495 426.317 478.315 425 475 425C471.685 425 468.505 426.317 466.161 428.661C463.817 431.005 462.5 434.185 462.5 437.5V450H450C446.685 450 443.505 451.317 441.161 453.661C438.817 456.005 437.5 459.185 437.5 462.5C437.5 465.815 438.817 468.995 441.161 471.339C443.505 473.683 446.685 475 450 475H462.5V487.5C462.5 490.815 463.817 493.995 466.161 496.339C468.505 498.683 471.685 500 475 500C478.315 500 481.495 498.683 483.839 496.339C486.183 493.995 487.5 490.815 487.5 487.5V475H500C503.315 475 506.495 473.683 508.839 471.339C511.183 468.995 512.5 465.815 512.5 462.5C512.5 459.185 511.183 456.005 508.839 453.661C506.495 451.317 503.315 450 500 450Z" fill="#263238"/>
<path d="M150 537.5H137.5V525C137.5 521.685 136.183 518.505 133.839 516.161C131.495 513.817 128.315 512.5 125 512.5C121.685 512.5 118.505 513.817 116.161 516.161C113.817 518.505 112.5 521.685 112.5 525V537.5H100C96.6848 537.5 93.5054 538.817 91.1612 541.161C88.817 543.505 87.5 546.685 87.5 550C87.5 553.315 88.817 556.495 91.1612 558.839C93.5054 561.183 96.6848 562.5 100 562.5H112.5V575C112.5 578.315 113.817 581.495 116.161 583.839C118.505 586.183 121.685 587.5 125 587.5C128.315 587.5 131.495 586.183 133.839 583.839C136.183 581.495 137.5 578.315 137.5 575V562.5H150C153.315 562.5 156.495 561.183 158.839 558.839C161.183 556.495 162.5 553.315 162.5 550C162.5 546.685 161.183 543.505 158.839 541.161C156.495 538.817 153.315 537.5 150 537.5Z" fill="#263238"/>
<path d="M212.5 275H200V262.5C200 259.185 198.683 256.005 196.339 253.661C193.995 251.317 190.815 250 187.5 250C184.185 250 181.005 251.317 178.661 253.661C176.317 256.005 175 259.185 175 262.5V275H162.5C159.185 275 156.005 276.317 153.661 278.661C151.317 281.005 150 284.185 150 287.5C150 290.815 151.317 293.995 153.661 296.339C156.005 298.683 159.185 300 162.5 300H175V312.5C175 315.815 176.317 318.995 178.661 321.339C181.005 323.683 184.185 325 187.5 325C190.815 325 193.995 323.683 196.339 321.339C198.683 318.995 200 315.815 200 312.5V300H212.5C215.815 300 218.995 298.683 221.339 296.339C223.683 293.995 225 290.815 225 287.5C225 284.185 223.683 281.005 221.339 278.661C218.995 276.317 215.815 275 212.5 275Z" fill="#263238"/>
<path d="M700 550H687.5V537.5C687.5 534.185 686.183 531.005 683.839 528.661C681.495 526.317 678.315 525 675 525C671.685 525 668.505 526.317 666.161 528.661C663.817 531.005 662.5 534.185 662.5 537.5V550H650C646.685 550 643.505 551.317 641.161 553.661C638.817 556.005 637.5 559.185 637.5 562.5C637.5 565.815 638.817 568.995 641.161 571.339C643.505 573.683 646.685 575 650 575H662.5V587.5C662.5 590.815 663.817 593.995 666.161 596.339C668.505 598.683 671.685 600 675 600C678.315 600 681.495 598.683 683.839 596.339C686.183 593.995 687.5 590.815 687.5 587.5V575H700C703.315 575 706.495 573.683 708.839 571.339C711.183 568.995 712.5 565.815 712.5 562.5C712.5 559.185 711.183 556.005 708.839 553.661C706.495 551.317 703.315 550 700 550Z" fill="#263238"/>
<path d="M750 337.5V357.375C750 378.625 741.558 399.006 726.532 414.032C711.506 429.058 691.125 437.5 669.875 437.5H650V417.625C650 396.375 658.442 375.994 673.468 360.968C688.494 345.942 708.875 337.5 730.125 337.5H750Z" fill="#378E43"/>
<path d="M750 337.5V357.375C750 378.625 741.558 399.006 726.532 414.032C711.506 429.058 691.125 437.5 669.875 437.5H650L750 337.5Z" fill="#42A047"/>
<path d="M650 406.25V437.5H618.75C597.201 437.5 576.535 428.94 561.298 413.702C546.06 398.465 537.5 377.799 537.5 356.25V325H568.75C590.299 325 610.965 333.56 626.202 348.798C641.44 364.035 650 384.701 650 406.25Z" fill="#378E43"/>
<path d="M650 437.5H618.75C597.201 437.5 576.535 428.94 561.298 413.702C546.06 398.465 537.5 377.799 537.5 356.25V325L650 437.5Z" fill="#42A047"/>
<path d="M362.5 491.125V512.5H341.125C330.796 512.513 320.566 510.488 311.021 506.541C301.476 502.594 292.804 496.803 285.5 489.5C278.197 482.196 272.406 473.524 268.459 463.979C264.512 454.434 262.487 444.204 262.5 433.875V412.5H283.875C294.204 412.487 304.434 414.512 313.979 418.459C323.524 422.406 332.196 428.197 339.5 435.5C346.803 442.804 352.594 451.476 356.541 461.021C360.488 470.566 362.513 480.796 362.5 491.125Z" fill="#42A047"/>
<path d="M362.5 491.125V512.5L262.5 412.5H283.875C294.204 412.487 304.434 414.512 313.979 418.459C323.524 422.406 332.196 428.197 339.5 435.5C346.803 442.804 352.594 451.476 356.541 461.021C360.488 470.566 362.513 480.796 362.5 491.125Z" fill="#378E43"/>
<path d="M725 150V164.625C725.007 179.122 722.157 193.478 716.613 206.872C711.068 220.267 702.938 232.437 692.688 242.688C682.437 252.938 670.267 261.068 656.872 266.613C643.478 272.157 629.122 275.007 614.625 275H600V260.375C599.993 245.878 602.843 231.522 608.387 218.128C613.932 204.733 622.062 192.563 632.312 182.312C642.563 172.062 654.733 163.932 668.128 158.387C681.522 152.843 695.878 149.993 710.375 150H725Z" fill="#378E43"/>
<path d="M725 150V164.625C725.007 179.122 722.157 193.478 716.613 206.872C711.068 220.267 702.938 232.437 692.688 242.688C682.437 252.938 670.267 261.068 656.872 266.613C643.478 272.157 629.122 275.007 614.625 275H600L725 150Z" fill="#42A047"/>
<path d="M562.5 256V275H543.5C535.278 275 527.393 271.734 521.58 265.92C515.766 260.107 512.5 252.222 512.5 244V225H531.5C539.722 225 547.607 228.266 553.42 234.08C559.234 239.893 562.5 247.778 562.5 256Z" fill="#378E43"/>
<path d="M562.5 275H543.5C535.278 275 527.393 271.734 521.58 265.92C515.766 260.107 512.5 252.222 512.5 244V225L562.5 275Z" fill="#42A047"/>
</svg>

